HIERARCHY
ROOT Hips
{
	OFFSET -0.179506 -22.333345 2.821913
	CHANNELS 6 Xposition Yposition Zposition Zrotation Yrotation Xrotation 
	JOINT LeftUpLeg
	{
		OFFSET 6.951974 -9.140623 -0.681533
		CHANNELS 3 Zrotation Yrotation Xrotation
		JOINT LeftLeg
		{
			OFFSET 3.427654 -37.519855 -0.449580
			CHANNELS 3 Zrotation Yrotation Xrotation
			JOINT LeftFoot
			{
				OFFSET -1.359570 -39.796059 -4.369333
				CHANNELS 3 Zrotation Yrotation Xrotation
				JOINT LeftToe
				{
					OFFSET 2.635814 -5.579078 11.928840
					CHANNELS 3 Zrotation Yrotation Xrotation
					End Site
					{
						OFFSET 0.000000 0.000000 0.000000
					}
				}
			}
		}
	}
	JOINT RightUpLeg
	{
		OFFSET -6.767048 -9.052170 -0.431982
		CHANNELS 3 Zrotation Yrotation Xrotation
		JOINT RightLeg
		{
			OFFSET -3.829005 -38.256897 -0.885003
			CHANNELS 3 Zrotation Yrotation Xrotation
			JOINT RightFoot
			{
				OFFSET 1.577377 -39.841461 -4.231180
				CHANNELS 3 Zrotation Yrotation Xrotation
				JOINT RightToe
				{
					OFFSET -2.537174 -4.814398 12.334795
					CHANNELS 3 Zrotation Yrotation Xrotation
					End Site
					{
						OFFSET 0.000000 0.000000 0.000000
					}
				}
			}
		}
	}
	JOINT Spine
	{
		OFFSET -0.253288 10.896323 -2.669631
		CHANNELS 3 Zrotation Yrotation Xrotation
		JOINT Spine1
		{
			OFFSET 0.548704 13.518043 0.109247
			CHANNELS 3 Zrotation Yrotation Xrotation
			JOINT Spine2
			{
				OFFSET 0.145701 5.292222 2.542457
				CHANNELS 3 Zrotation Yrotation Xrotation
				JOINT Neck
				{
					OFFSET -0.277840 21.387037 -4.285703
					CHANNELS 3 Zrotation Yrotation Xrotation
					JOINT Head
					{
						OFFSET 0.515184 6.496960 5.134897
						CHANNELS 3 Zrotation Yrotation Xrotation
						End Site
						{
							OFFSET 0.000000 0.000000 0.000000
						}
					}
				}
				JOINT LeftShoulder
				{
					OFFSET 7.884473 12.174932 -3.408961
					CHANNELS 3 Zrotation Yrotation Xrotation
					JOINT LeftArm
					{
						OFFSET 9.097692 3.046888 -0.886815
						CHANNELS 3 Zrotation Yrotation Xrotation
						JOINT LeftForeArm
						{
							OFFSET 25.961220 -1.277207 -2.745643
							CHANNELS 3 Zrotation Yrotation Xrotation
							JOINT LeftHand
							{
								OFFSET 24.923361 0.898606 -0.117091
								CHANNELS 3 Zrotation Yrotation Xrotation
								End Site
								{
									OFFSET 0.000000 0.000000 0.000000
								}
							}
						}
					}
				}
				JOINT RightShoulder
				{
					OFFSET -8.175920 11.883285 -3.861528
					CHANNELS 3 Zrotation Yrotation Xrotation
					JOINT RightArm
					{
						OFFSET -9.601238 3.255117 -0.914307
						CHANNELS 3 Zrotation Yrotation Xrotation
						JOINT RightForeArm
						{
							OFFSET -25.374195 -1.332924 -2.140099
							CHANNELS 3 Zrotation Yrotation Xrotation
							JOINT RightHand
							{
								OFFSET -25.529810 0.777228 -0.555919
								CHANNELS 3 Zrotation Yrotation Xrotation
								End Site
								{
									OFFSET 0.000000 0.000000 0.000000
								}
							}
						}
					}
				}
			}
		}
	}
}
MOTION
Frames: 9
Frame Time: 0.033333
339.162476 -326.770599 84.808655 -127.078949 -0.772560 93.779508 0.999072 -6.096328 -13.602464 -13.641391 3.419138 77.159724 4.524452 24.789475 -58.344289 nan nan nan -1.667126 1.867594 -34.709618 7.457392 -12.489153 48.782927 -1.808069 -9.310748 -23.083984 nan nan nan -2.380171 -1.831555 12.244991 7.302971 -1.883733 5.701750 1.953599 -3.017359 -2.179040 -4.685701 -0.172311 -6.801635 1.521564 2.167863 -13.336840 -22.026094 7.716829 3.444977 -58.108536 1.558642 21.959207 -3.750988 -79.596454 20.854246 9.514778 -28.069077 -22.751223 23.144027 -3.611340 -2.830343 48.606816 -9.578161 9.098948 -56.559003 78.248332 -54.366726 -19.886513 19.950560 -48.759705 
337.323151 -324.712128 84.354340 -126.764762 -0.992545 93.013885 1.071065 -6.552242 -16.064297 -13.935442 4.235588 79.424922 4.709032 24.912481 -58.369319 nan nan nan -1.280206 1.549357 -32.434598 7.497432 -12.124520 49.912351 -2.015528 -9.822412 -25.269012 nan nan nan -2.386117 -1.058906 12.569196 7.166056 -2.200187 6.139726 2.023263 -2.937132 -2.157216 -4.627348 -0.839135 -7.014418 1.723778 2.049719 -13.028318 -22.910407 7.260073 3.658685 -56.909030 2.032490 21.431588 -5.143242 -77.770030 22.169626 10.281944 -27.655897 -21.403523 23.803587 -2.754169 -2.735083 48.043726 -9.495535 8.958869 -56.141065 78.415878 -54.384218 -21.203184 19.837057 -48.569011 
335.711365 -322.954376 84.088600 -127.867617 -0.964915 92.787907 1.916137 -6.547850 -19.357307 -11.899077 6.079848 82.006506 4.754715 25.415440 -57.227434 nan nan nan -0.643030 1.683048 -30.500891 7.588052 -11.408092 49.960308 -2.291723 -9.790587 -26.918009 nan nan nan -1.897277 0.117265 13.119375 6.864469 -1.855698 6.539879 2.003785 -2.427229 -2.324189 -4.843132 -1.298415 -7.708834 1.713901 1.419870 -13.134517 -23.906860 6.486895 3.615064 -56.358916 2.812315 21.040910 -3.271162 -75.951397 20.474137 11.447194 -27.634352 -21.006821 24.657648 -1.407244 -2.783651 47.528496 -8.521441 8.848590 -56.622445 78.280817 -55.061076 -22.781587 19.733854 -47.404212 
334.037109 -321.168030 83.842201 -129.293615 -1.140747 92.317723 2.220464 -6.574349 -22.208666 -11.349234 7.803620 83.303805 5.346072 25.541121 -57.728696 nan nan nan -0.250342 2.022461 -28.136763 7.616197 -10.589398 50.006026 -2.414661 -9.461154 -28.444896 nan nan nan -1.873813 0.966827 13.695196 6.414916 -1.771776 7.506566 1.673035 -1.803656 -2.861505 -3.678244 -0.368150 -8.222357 1.167614 0.290759 -13.019885 -23.559530 6.777689 3.610356 -57.697583 3.594149 20.730653 2.252796 -73.846007 15.716200 10.477575 -27.833042 -19.659558 25.126193 0.811630 -1.922508 51.963119 -5.914646 10.855894 -48.738726 76.598295 -46.065272 -23.427761 19.404630 -47.947732 
332.368896 -319.364624 83.650230 -130.853892 -1.474739 91.751646 2.447045 -6.445399 -24.869607 -10.838754 9.267406 84.023286 5.677387 25.634728 -57.583873 nan nan nan -0.021723 2.002823 -25.571164 7.856066 -9.398235 49.943355 -2.388395 -9.072689 -29.864235 nan nan nan -1.862253 1.897049 14.070668 5.875971 -1.749026 8.884243 1.332247 -1.122854 -3.465054 -2.944055 0.226613 -8.578111 0.675813 -0.467519 -12.949569 -23.377465 7.257526 3.230239 -57.457252 4.380725 20.299170 1.055374 -72.249954 16.596899 10.274535 -27.808607 -17.340458 25.246206 2.102561 -1.031643 52.364602 -4.469024 11.799084 -40.290365 75.522666 -37.836741 -24.226779 19.538297 -47.185622 
330.586853 -317.578827 83.504234 -131.777645 -1.732533 92.705429 3.210746 -8.169110 -28.499881 -7.842510 11.796889 84.154033 4.341722 17.611900 -21.663120 nan nan nan -0.179511 2.019938 -24.060633 7.287615 -9.914198 48.854205 -6.218793 -9.464582 -30.154543 nan nan nan -1.109377 3.500881 12.349290 4.526481 -1.421088 10.429417 2.034268 -1.044063 -4.980415 -4.536301 -1.674949 -6.385837 2.403002 0.019000 -13.934488 -24.713947 5.529978 4.078759 -56.061189 6.751399 19.810665 3.348051 -71.496103 13.163085 12.224973 -27.400595 -21.140095 24.493515 1.409862 -0.135568 48.674201 -5.804951 9.277403 -49.369126 72.310713 -53.064558 -23.643119 19.631064 -47.670965 
328.823120 -315.630920 83.433037 -132.632297 -2.107807 92.985270 3.665770 -8.243555 -32.030809 -7.773951 12.624231 84.009643 4.569926 17.054498 -21.950173 nan nan nan -0.128558 1.788293 -21.913814 7.465313 -8.923009 48.274992 -5.876479 -9.193250 -31.306584 nan nan nan -1.125041 4.818456 12.550918 3.995407 -1.198358 9.708621 1.964801 -1.076973 -5.147406 -4.198209 -2.009304 -6.050778 2.552302 -0.292446 -13.670290 -24.847498 6.087872 3.965748 -54.998657 8.358374 19.747369 1.404944 -70.751262 14.989408 12.026807 -28.432021 -21.368389 24.154706 1.198170 -0.236901 48.000891 -6.299340 9.642075 -49.601286 73.790250 -53.020555 -24.262491 20.333718 -48.652642 
327.057739 -313.637390 83.489075 -133.596380 -2.348719 92.939095 4.269129 -8.129854 -34.815617 -7.429365 13.267409 83.379250 4.771806 16.941149 -22.060706 nan nan nan 0.109890 1.598676 -19.019264 7.702628 -7.494041 47.021619 -5.385030 -8.773440 -32.044848 nan nan nan -1.213814 5.942891 12.670276 3.569063 -1.077860 9.642946 1.848928 -0.786937 -5.157967 -3.807070 -2.310050 -6.149454 2.591601 -0.581477 -13.622682 -25.017086 6.370252 3.875169 -54.016000 9.952610 19.515805 -0.737600 -70.535977 17.773156 13.668818 -28.671590 -20.547374 23.991295 1.606526 -0.115919 47.040890 -5.786616 9.914870 -48.781070 75.381139 -51.287041 -26.244144 20.554816 -47.741775 
325.279266 -311.533112 83.598999 -134.476854 -2.432250 92.696591 5.050629 -7.976071 -37.028228 -6.993155 13.910497 82.340051 5.017336 16.711867 -20.434504 nan nan nan 0.458771 1.471766 -15.597300 7.770085 -6.245448 45.204768 -5.137623 -8.487971 -32.486804 nan nan nan -1.537330 7.150203 12.541229 3.473033 -1.036106 10.010393 1.815267 -0.380550 -5.096339 -3.278017 -2.421054 -6.358369 2.563092 -1.141679 -13.385977 -24.652151 6.810453 3.871434 -53.630684 11.190649 19.371040 -2.351381 -70.601184 19.633528 14.425341 -27.781692 -21.421217 24.608171 2.960035 -0.060020 48.094506 -3.266127 11.354260 -48.412429 76.380284 -50.682674 -27.367070 19.747441 -47.798203 
